<?xml version="1.0" encoding="UTF-8"?>
<svg width="150px" height="111px" viewBox="0 0 108 80" version="1.1" xmlns="http://www.w3.org/2000/svg" xmlns:xlink="http://www.w3.org/1999/xlink">
    <!-- Generator: Sketch 42 (36781) - http://www.bohemiancoding.com/sketch -->
    <title>Page 1</title>
    <desc>Created with Sketch.</desc>
    <defs>
        <polygon id="path-1" points="4.05751456 18.1344561 4.05751456 0.0870877193 0.0626679612 0.0870877193 0.0626679612 18.1344561 4.05751456 18.1344561"></polygon>
        <polygon id="path-3" points="0.0505398058 0.08 95.9293748 0.08 95.9293748 64.248386 0.0505398058 64.248386 0.0505398058 0.08"></polygon>
        <polygon id="path-5" points="0 79.92 107.86334 79.92 107.86334 0.350877193 0 0.350877193"></polygon>
    </defs>
    <g id="Page-1" stroke="none" stroke-width="1" fill="none" fill-rule="evenodd">
        <g id="Artboard-3" transform="translate(-530.000000, -641.000000)">
            <g id="Page-1" transform="translate(530.000000, 641.000000)">
                <g id="Group-3" transform="translate(103.805825, 41.323509)">
                    <mask id="mask-2" fill="white">
                        <use xlink:href="#path-1"></use>
                    </mask>
                    <g id="Clip-2"></g>
                    <path d="M0.0626679612,1.08322807 C0.0626679612,0.533052632 0.505502913,0.0870877193 1.07066796,0.0870877193 L3.04961942,0.0870877193 C3.60639612,0.0870877193 4.05761942,0.533403509 4.05761942,1.08322807 L4.05761942,17.1386667 C4.05761942,17.6884912 3.61478447,18.1344561 3.04961942,18.1344561 L1.07066796,18.1344561 C0.513891262,18.1344561 0.0626679612,17.6884912 0.0626679612,17.1386667 L0.0626679612,1.08322807 Z" id="Fill-1" fill="#FEFEFE" mask="url(#mask-2)"></path>
                </g>
                <path d="M0,42.4067368 C0,41.8565614 0.442834951,41.4105965 1.008,41.4105965 L2.98695146,41.4105965 C3.54372816,41.4105965 3.99495146,41.8569123 3.99495146,42.4067368 L3.99495146,58.4621754 C3.99495146,59.012 3.5521165,59.4579649 2.98695146,59.4579649 L1.008,59.4579649 C0.451223301,59.4579649 0,59.012 0,58.4621754 L0,42.4067368 Z" id="Fill-4" fill="#FEFEFE"></path>
                <g id="Group-8" transform="translate(5.941748, 0.270877)">
                    <mask id="mask-4" fill="white">
                        <use xlink:href="#path-3"></use>
                    </mask>
                    <g id="Clip-7"></g>
                    <path d="M78.7070447,21.7318947 C82.350734,25.8890877 85.1741126,30.788386 86.9230835,36.1747018 L94.9280155,36.1747018 C95.4809476,36.1747018 95.9293748,36.6157544 95.9293748,37.174 L95.9293748,63.2490877 C95.9293748,63.8010175 95.4739573,64.248386 94.9280155,64.248386 L84.9455301,64.248386 C84.3925981,64.248386 83.9445204,63.8073333 83.9445204,63.2490877 L83.9445204,43.3392632 C81.2459184,25.7613684 66.1122874,12.3027719 47.8473553,12.3027719 C30.1465398,12.3027719 15.3865398,24.9431228 12.0353942,41.7224211 L12.0353942,63.2490877 C12.0353942,63.8010175 11.5803262,64.248386 11.0343845,64.248386 L1.05189903,64.248386 C0.49896699,64.248386 0.0505398058,63.8073333 0.0505398058,63.2490877 L0.0505398058,37.174 C0.0505398058,36.6220702 0.505957282,36.1747018 1.05189903,36.1747018 L8.77162718,36.1747018 C14.1352777,19.6561053 29.6026951,7.71926316 47.8473553,7.71926316 C62.1522874,7.71926316 68.4746563,0.0799649123 68.4746563,0.0799649123 C68.4746563,0.0799649123 66.6743068,6.82768421 70.6905786,9.62768421 C73.0553942,11.0729474 76.7794718,9.62768421 83.0245981,1.63785965 C84.102501,5.7062807 85.0381515,14.439614 78.7070447,21.7318947" id="Fill-6" fill="#FEFEFE" mask="url(#mask-4)"></path>
                </g>
                <path d="M38.1219029,47.4666316 L36.4043883,51.8785614 L39.8600388,51.8785614 L38.1219029,47.4666316 Z M36.923767,43.3357544 L39.5003883,43.3357544 L45.6525437,57.5329474 L42.1367767,57.5329474 L40.9187184,54.5252281 L35.4257476,54.5252281 L34.246835,57.5329474 L30.8114563,57.5329474 L36.923767,43.3357544 Z" id="Fill-9" fill="#FEFEFE"></path>
                <polygon id="Fill-11" fill="#FEFEFE" points="46.0917786 43.3356842 50.8060311 43.3356842 54.0617592 52.6002456 54.1016039 52.6002456 57.3779534 43.3356842 62.0715845 43.3356842 62.0715845 57.5332281 58.9553126 57.5332281 58.9553126 46.6441053 58.915468 46.6441053 55.2004777 57.5332281 52.8234291 57.5332281 49.2478951 46.6441053 49.2080505 46.6441053 49.2080505 57.5332281 46.0917786 57.5332281"></polygon>
                <path d="M76.7726563,56.5299649 C75.8537825,57.0117193 74.8950641,57.3594386 73.896501,57.5727719 C72.8975883,57.7861053 71.8791029,57.8938246 70.8403456,57.8938246 C69.7348311,57.8938246 68.7163456,57.7194386 67.7841903,57.3720702 C66.852035,57.0243509 66.0464039,56.5271579 65.3672971,55.8780351 C64.6881903,55.229614 64.1586757,54.4443509 63.7794524,53.5222456 C63.3998796,52.5997895 63.2100932,51.5706667 63.2100932,50.4338246 C63.2100932,49.2980351 63.3998796,48.2682105 63.7794524,47.3457544 C64.1586757,46.4232982 64.6881903,45.6380351 65.3672971,44.9899649 C66.0464039,44.3418947 66.852035,43.8432982 67.7841903,43.4959298 C68.7163456,43.1482105 69.7348311,42.9748772 70.8403456,42.9748772 C71.9720738,42.9748772 73.0143262,43.1120702 73.9667534,43.3850526 C74.9184816,43.6594386 75.7545204,44.1313684 76.4731223,44.7990877 L74.2757243,47.2057544 C73.849666,46.764 73.370132,46.4303158 72.8378214,46.2029474 C72.3051612,45.9759298 71.6393359,45.8622456 70.8403456,45.8622456 C70.1745204,45.8622456 69.5719573,45.9759298 69.0323068,46.2029474 C68.4937049,46.4303158 68.0302485,46.7475088 67.644734,47.1559298 C67.2578214,47.5629474 66.9617825,48.0478596 66.7555689,48.6089123 C66.5486563,49.1706667 66.445899,49.7787368 66.445899,50.4338246 C66.445899,51.1025965 66.5486563,51.7145263 66.7555689,52.2689123 C66.9617825,52.824 67.2578214,53.3047018 67.644734,53.7131228 C68.0302485,54.1204912 68.4937049,54.4376842 69.0323068,54.6647018 C69.5719573,54.8927719 70.1745204,55.0064561 70.8403456,55.0064561 C71.5194524,55.0064561 72.1052388,54.9292632 72.5984039,54.7752281 C73.0908699,54.6215439 73.4837243,54.4650526 73.7766175,54.3043509 L73.7766175,51.998386 L71.2401903,51.998386 L71.2401903,49.1099649 L76.7726563,49.1099649 L76.7726563,56.5299649 Z" id="Fill-13" fill="#FEFEFE"></path>
                <polygon id="Fill-15" fill="#FEFEFE" points="24.5389981 65.3613333 28.0946097 65.3613333 31.5901049 74.6658947 31.6299495 74.6658947 35.1855612 65.3613333 38.5213282 65.3613333 32.6889786 79.5588772 30.1920466 79.5588772"></polygon>
                <path d="M41.4775223,72.46 C41.4775223,73.1287719 41.5802796,73.7407018 41.7871922,74.2947368 C41.9934058,74.8501754 42.2894447,75.3308772 42.6763573,75.7389474 C43.0618718,76.1463158 43.5253282,76.4635088 44.0639301,76.6908772 C44.6035806,76.9189474 45.2061437,77.0326316 45.8719689,77.0326316 C46.5374447,77.0326316 47.1403573,76.9189474 47.6796583,76.6908772 C48.2189592,76.4635088 48.6817165,76.1463158 49.0679301,75.7389474 C49.4541437,75.3308772 49.7501825,74.8501754 49.9570951,74.2947368 C50.1633087,73.7407018 50.266765,73.1287719 50.266765,72.46 C50.266765,71.8049123 50.1633087,71.1968421 49.9570951,70.6347368 C49.7501825,70.0736842 49.4541437,69.5891228 49.0679301,69.1817544 C48.6817165,68.7736842 48.2189592,68.4564912 47.6796583,68.2291228 C47.1403573,68.0021053 46.5374447,67.8884211 45.8719689,67.8884211 C45.2061437,67.8884211 44.6035806,68.0021053 44.0639301,68.2291228 C43.5253282,68.4564912 43.0618718,68.7736842 42.6763573,69.1817544 C42.2894447,69.5891228 41.9934058,70.0736842 41.7871922,70.6347368 C41.5802796,71.1968421 41.4775223,71.8049123 41.4775223,72.46 M38.2417165,72.46 C38.2417165,71.3242105 38.4315029,70.2940351 38.8110757,69.3719298 C39.190299,68.4494737 39.7198136,67.6642105 40.3989204,67.0161404 C41.0780272,66.3677193 41.8836583,65.8694737 42.8158136,65.5217544 C43.7479689,65.174386 44.7664544,65.0010526 45.8719689,65.0010526 C46.9774835,65.0010526 47.9959689,65.174386 48.9281243,65.5217544 C49.8599301,65.8694737 50.6659107,66.3677193 51.3450175,67.0161404 C52.0241243,67.6642105 52.5532893,68.4494737 52.9332117,69.3719298 C53.3127845,70.2940351 53.5022214,71.3242105 53.5022214,72.46 C53.5022214,73.5968421 53.3127845,74.6259649 52.9332117,75.5480702 C52.5532893,76.4705263 52.0241243,77.2557895 51.3450175,77.9038596 C50.6659107,78.5529825 49.8599301,79.0505263 48.9281243,79.3982456 C47.9959689,79.745614 46.9774835,79.92 45.8719689,79.92 C44.7664544,79.92 43.7479689,79.745614 42.8158136,79.3982456 C41.8836583,79.0505263 41.0780272,78.5529825 40.3989204,77.9038596 C39.7198136,77.2557895 39.190299,76.4705263 38.8110757,75.5480702 C38.4315029,74.6259649 38.2417165,73.5968421 38.2417165,72.46" id="Fill-17" fill="#FEFEFE"></path>
                <mask id="mask-6" fill="white">
                    <use xlink:href="#path-5"></use>
                </mask>
                <g id="Clip-20"></g>
                <polygon id="Fill-19" fill="#FEFEFE" mask="url(#mask-6)" points="54.600466 79.5589474 57.7167379 79.5589474 57.7167379 65.3614035 54.600466 65.3614035"></polygon>
                <path d="M68.8222835,69.0506667 C68.5154097,68.6766316 68.1396816,68.389614 67.6933515,68.1889123 C67.2470214,67.9882105 66.7311379,67.8885614 66.1453515,67.8885614 C65.5592155,67.8885614 65.0171184,68.0018947 64.5176621,68.2292632 C64.0182058,68.4562807 63.5851573,68.7734737 63.218866,69.1818947 C62.8529243,69.5892632 62.5666718,70.0738246 62.3601087,70.6348772 C62.1535456,71.1969825 62.0504388,71.8050526 62.0504388,72.4601404 C62.0504388,73.1289123 62.1535456,73.7408421 62.3601087,74.2948772 C62.5666718,74.8499649 62.8497786,75.3306667 63.2094291,75.7390877 C63.5687301,76.1464561 63.9916427,76.4636491 64.4778175,76.6906667 C64.9632932,76.9190877 65.486167,77.0324211 66.0453903,77.0324211 C66.6850019,77.0324211 67.2505165,76.898386 67.7436816,76.6310175 C68.2361476,76.3636491 68.6422835,75.989614 68.9617398,75.5078596 L71.558633,77.4534737 C70.9592155,78.2955789 70.2004194,78.9173333 69.2815456,79.3176842 C68.3630214,79.7194386 67.4168854,79.9201404 66.4448854,79.9201404 C65.3393709,79.9201404 64.321235,79.7457544 63.3887301,79.3980351 C62.4569243,79.0506667 61.6512932,78.5531228 60.9718369,77.904 C60.2930796,77.2559298 59.763565,76.4706667 59.3839922,75.5482105 C59.0047689,74.6257544 58.8149825,73.5966316 58.8149825,72.4601404 C58.8149825,71.3243509 59.0047689,70.2941754 59.3839922,69.3717193 C59.763565,68.449614 60.2930796,67.6643509 60.9718369,67.0159298 C61.6512932,66.3678596 62.4569243,65.869614 63.3887301,65.5218947 C64.321235,65.1741754 65.3393709,65.0008421 66.4448854,65.0008421 C66.8447301,65.0008421 67.2606524,65.0373333 67.6933515,65.1106667 C68.1260505,65.184 68.5524583,65.3015439 68.9718757,65.4622456 C69.3912932,65.6218947 69.7942835,65.8362807 70.1804971,66.1036491 C70.5667107,66.3706667 70.9123806,66.6987368 71.2192544,67.0854035 L68.8222835,69.0506667 Z" id="Fill-21" fill="#FEFEFE" mask="url(#mask-6)"></path>
                <polygon id="Fill-22" fill="#FEFEFE" mask="url(#mask-6)" points="72.3388194 65.3613333 81.9466252 65.3613333 81.9466252 68.2487018 75.4550913 68.2487018 75.4550913 70.8964211 81.5869748 70.8964211 81.5869748 73.7837895 75.4550913 73.7837895 75.4550913 76.6711579 82.3062757 76.6711579 82.3062757 79.5588772 72.3388194 79.5588772"></polygon>
            </g>
        </g>
    </g>
</svg>