<?xml version="1.0" encoding="UTF-8"?>
<svg width="22px" height="8px" viewBox="0 0 22 8" version="1.1" xmlns="http://www.w3.org/2000/svg" xmlns:xlink="http://www.w3.org/1999/xlink">
    <!-- Generator: Sketch 42 (36781) - http://www.bohemiancoding.com/sketch -->
    <title>Combined Shape</title>
    <desc>Created with Sketch.</desc>
    <defs></defs>
    <g id="Page-1" stroke="none" stroke-width="1" fill="none" fill-rule="evenodd">
        <g id="Artboard-3" transform="translate(-129.000000, -146.000000)" fill="#44E1ED">
            <path d="M134.784239,147 L136.233446,147 L136.233446,153.233446 L134.338329,153.233446 L131.467786,148.796078 L131.449168,148.796078 L131.449168,153.233446 L130,153.233446 L130,147 L131.969434,147 L134.76566,151.331716 L134.784239,151.331716 L134.784239,147 Z M137.012626,147 L141.51907,147 L141.51907,148.267819 L138.474176,148.267819 L138.474176,149.429987 L141.350391,149.429987 L141.350391,150.697807 L138.474176,150.697807 L138.474176,151.965626 L141.68771,151.965626 L141.68771,153.233446 L137.012626,153.233446 L137.012626,147 Z M148.868812,147 L150.209999,147 L148.452886,153.233446 L147.273012,153.233446 L145.948837,148.919374 L145.93186,148.919374 L144.607721,153.233446 L143.470253,153.233446 L141.68771,147 L143.130757,147 L144.089899,150.997153 L144.106876,150.997153 L145.363144,147 L146.593983,147 L147.841728,151.102805 L147.858705,151.102805 L148.868812,147 Z" id="Combined-Shape"></path>
        </g>
    </g>
</svg>